<?xml version="1.0"?>
<svg xmlns="http://www.w3.org/2000/svg" xmlns:xlink="http://www.w3.org/1999/xlink" version="1.1" id="Capa_1" x="0px" y="0px" width="512px" height="512px" viewBox="0 0 194.143 194.143" style="enable-background:new 0 0 194.143 194.143;" xml:space="preserve" class=""><g><g>
	<path d="M167.522,97.289c-2.594-3.315-7.327-1.329-8.885,1.848c-6.091-2.118-11.861-2.494-18.375-2.544   c-2.448-0.019-4.557,2.074-4.528,4.529c0.058,5.193,0.33,9.925,1.445,14.741c-1.646,0.216-3.291,0.359-4.936,0.5   c0.518-0.538,0.908-1.256,0.987-2.226c1.408-17.258,1.549-34.752,1.435-52.06c-0.024-3.619-3.273-5.113-5.991-4.512   c0.351-2.059-0.51-4.329-2.91-4.751c-4.75-0.837-9.341-2.25-14.134-2.854c-2.538-0.32-4.045,2.222-4.31,4.31   c-0.193,1.521-0.313,8.12-1.785,11.408c0.007-2.935,0.014-5.87,0.021-8.805c0.006-2.369-1.977-4.332-4.337-4.337l-5.289-0.013   c1.335-4.565,2.244-9.225,2.993-13.924c0.346-0.017,0.702-0.057,1.074-0.142c12.6-2.87,23.738-10.223,36.388-13.208   c3.963-0.935,5.194-7.328,1.194-9.132c-11.306-5.099-24.294-10.043-36.947-9.536c-0.588-1.334-1.889-2.63-3.267-2.835   c-0.977-0.145-1.73-0.145-2.706,0c-1.633,0.242-3.206,2.005-3.554,3.554c-1.462,6.497-0.599,13.947-0.621,20.575   c-0.029,8.264-0.753,16.55-2.399,24.653c-2.434,0.062-4.089,2.015-4.249,4.345c0.159-2.317-4.199,18.416-4.264,11.713   c-0.038-3.91-0.076-7.807-0.234-11.713c-0.137-3.377-3.365-4.856-6.243-3.582c-2.753,1.219-7.354,0.834-10.337,1.09   c-0.87,0.064-1.741,0.097-2.611,0.138c-0.037-0.049-0.082-0.089-0.121-0.136c0.058-0.32-0.21-0.712-0.579-0.575   c-1.791-1.313-4.845-1.099-5.864,1.085c-3.221,6.894-2.244,14.692-1.941,22.157c0.498,12.251,1.97,24.122,0.08,36.358   c-0.009,0.058,0.011,0.103,0.004,0.157c-1.214,0.015-2.421-0.023-3.606-0.198c-0.069-4.082-0.125-8.164-0.275-12.245   c-0.095-2.59-2.403-4.337-4.923-3.75c-5.304,1.234-11.705-1.398-17.187-1.53c-3.066-0.074-3.359,3.88-1.098,5.046   c-12.317,9.829-17.894,33.602-21.041,46.714c-2.848,11.863-8.754,35.495,6.047,41.141c0.441,0.168,0.866,0.095,1.233-0.103   c0.539,0.242,1.142,0.419,1.845,0.465c18.101,1.173,36.531,1.394,54.663,0.925c5.547-0.143,6.824-6.54,3.865-9.607   c1.915-13.077,10.879-22.825,24.575-23.906c15.745-1.242,22.224,11.442,21.439,25.3c-0.168,2.974,2.548,4.689,5.109,4.697   c0.691,1.812,2.31,3.265,4.879,3.356c18.159,0.647,36.511,1.017,54.662,0.032c1.802-0.098,3.139-0.838,4.021-1.887   c1.933,0.415,4.278-0.371,4.936-2.562C200.576,153.084,187.48,122.805,167.522,97.289z M121.011,19.388   c-6.872,2.495-13.599,5.451-20.489,7.905c0.584-4.332,1.15-8.943,1.081-13.389C108.447,15.11,114.778,16.912,121.011,19.388z    M61.167,84.528c0.112-7.589,0.803-15.982,0.173-23.761c3.131-0.01,6.49-0.697,9.528-0.521   c-0.584,10.343-1.127,18.801,12.129,19.26c1.449,0.05,3.163-0.854,3.811-2.186c2.631-5.4,4.386-10.449,5.248-16.089   c1.611-0.004,3.224-0.008,4.835-0.012c0.012,4.624,0.022,9.249,0.033,13.873c0.009,3.843,4.623,5.555,7.331,3.036   c2.325-2.164,6.604-3.843,8.101-6.818c1.86-3.698,2.506-7.888,2.994-12.044c3.08,0.687,6.109,1.552,9.295,1.813   c0.187,0.015,0.329-0.057,0.504-0.067c-0.069,0.332-0.109,0.686-0.112,1.064c-0.076,11.543-0.002,23.165,0.449,34.748   c-0.645-0.132-1.328-0.128-2.013,0.052c-4.949,1.293-18.839-1.056-21.365,5.657c-1.633,4.335,1.816,9.762-1.759,9.783   c-2.374,0.014-4.747,0.028-7.121,0.043c0.29-4.554-0.335-8.924-0.818-13.842c-0.21-2.134-1.759-4.403-4.207-4.208   c-5.206,0.416-10.4,0.637-15.618,0.86c-1.629,0.069-2.639,1.015-3.038,2.174c-2.094-1.121-4.943-0.976-6.021,1.523   c-2.007,4.646-2.869,9.051-3.135,13.831c-0.939,0.127-1.886,0.261-2.833,0.387C60.435,103.813,61.024,94.244,61.167,84.528z    M183.739,179.324c-0.551-0.202-1.147-0.354-1.829-0.391c-18.151-0.983-36.503-0.615-54.662,0.032   c-0.091,0.003-0.166,0.026-0.255,0.032c0.66-17.717-10.592-31.736-29.489-32.379c-18.519-0.629-32.989,14.411-33.771,32.128   c-16.956-0.35-34.125-0.111-51.016,0.983c-1.321,0.086-2.3,0.607-3.043,1.306c-2.277-10.446,2.415-26.71,4.407-34.64   c4.136-16.467,13.138-28.635,19.913-43.488c0.065-0.142,0.085-0.302,0.13-0.453c2.002,0.421,3.962,0.936,5.876,1.506   c-0.124,4.259-0.214,8.518-0.287,12.778c-0.035,2.021,1.35,3.412,3.113,4.089c7.066,2.711,14.646,0.618,21.952,0.406   c2.479-0.072,4.451-1.991,4.494-4.494c0.085-5.094,0.461-9.682,2.412-14.431c0.085-0.208,0.13-0.41,0.177-0.613   c0.24,0.06,0.449,0.159,0.726,0.171c3.932,0.168,7.853,0.362,11.772,0.612c0.438,4.362,0.841,8.552-0.349,13.105   c-0.717,2.744,1.341,5.487,4.194,5.505c5.206,0.03,10.412,0.062,15.618,0.093c1.94,0.012,3.805-1.359,4.284-3.262   c2.08-8.271,6.059-9.768,12.12-11.207c-0.016,5.076-0.031,10.154-0.046,15.231c-0.008,2.932,2.854,5.04,5.653,4.307   c6.088-1.598,12.158-0.98,18.229-2.572c2.255-0.591,3.938-3.235,3.141-5.532c-1.425-4.104-2.021-8.14-2.26-12.325   c4.188,0.26,8.247,0.862,12.362,2.176c1.732,0.554,3.124,0.114,4.06-0.809C176.703,129.233,185.857,152.294,183.739,179.324z" data-original="#000000" class="active-path" data-old_color="##E12B3" fill="#E12B38"/>
</g></g> </svg>
